<?xml version="1.0" standalone="no"?>
<!DOCTYPE svg PUBLIC "-//W3C//DTD SVG 20010904//EN"
 "http://www.w3.org/TR/2001/REC-SVG-20010904/DTD/svg10.dtd">
<svg version="1.0" xmlns="http://www.w3.org/2000/svg"
 width="712.000000pt" height="227.000000pt" viewBox="0 0 712.000000 227.000000"
 preserveAspectRatio="xMidYMid meet">
<metadata>
Created by potrace 1.15, written by Peter Selinger 2001-2017
</metadata>
<g transform="translate(0.000000,227.000000) scale(0.100000,-0.100000)"
fill="#000000" stroke="none">
<path d="M3240 2177 c-42 -21 -50 -51 -50 -199 0 -132 1 -137 26 -167 l26 -31
519 0 520 0 24 25 c24 23 25 28 25 175 l0 152 -29 29 -29 29 -504 0 c-383 0
-509 -3 -528 -13z"/>
<path d="M4510 2177 c-42 -21 -50 -51 -50 -199 0 -132 1 -137 26 -167 l26 -31
519 0 520 0 24 25 c24 23 25 28 25 175 l0 152 -29 29 -29 29 -504 0 c-383 0
-509 -3 -528 -13z"/>
<path d="M5860 2177 c-42 -21 -50 -51 -50 -195 0 -134 6 -164 39 -189 12 -9
143 -12 534 -13 l518 0 24 25 c24 23 25 28 25 175 l0 152 -29 29 -29 29 -504
0 c-383 0 -509 -3 -528 -13z"/>
<path d="M704 2168 c-36 -17 -44 -52 -44 -193 0 -144 8 -176 47 -194 34 -15
1012 -15 1046 0 39 18 47 50 47 194 0 144 -8 176 -47 194 -32 15 -1019 14
-1049 -1z"/>
<path d="M1954 2168 c-36 -17 -44 -52 -44 -193 0 -144 8 -176 47 -194 34 -15
1012 -15 1046 0 39 18 47 50 47 194 0 144 -8 176 -47 194 -32 15 -1019 14
-1049 -1z"/>
<path d="M5220 1687 c-42 -21 -50 -51 -50 -195 0 -134 6 -164 39 -189 12 -9
143 -12 534 -13 l518 0 24 25 c24 23 25 28 25 175 l0 152 -29 29 -29 29 -504
0 c-383 0 -509 -3 -528 -13z"/>
<path d="M3910 1657 c-42 -21 -50 -51 -50 -199 0 -132 1 -137 26 -167 l26 -31
516 0 c391 1 521 4 533 13 33 25 39 55 39 196 0 133 -1 141 -24 168 l-24 28
-509 2 c-395 2 -514 0 -533 -10z"/>
<path d="M2603 1648 c-37 -18 -45 -55 -41 -212 3 -123 6 -148 21 -163 17 -17
53 -18 547 -18 495 0 530 1 547 18 16 16 18 38 18 182 0 144 -2 166 -18 182
-16 17 -53 18 -535 20 -350 1 -524 -2 -539 -9z"/>
<path d="M17 1643 c-16 -4 -17 -20 -15 -201 l3 -197 523 -3 523 -2 24 24 c24
24 25 29 25 176 l0 152 -29 29 -29 29 -504 -1 c-277 -1 -511 -3 -521 -6z"/>
<path d="M1310 1637 c-42 -21 -50 -51 -50 -199 0 -132 1 -137 26 -167 l26 -31
519 0 520 0 24 25 c24 23 25 28 25 175 l0 152 -29 29 -29 29 -504 0 c-383 0
-509 -3 -528 -13z"/>
<path d="M5970 1147 c-42 -21 -50 -51 -50 -199 0 -132 1 -137 26 -167 l26 -31
519 0 520 0 24 25 c24 23 25 28 25 175 l0 152 -29 29 -29 29 -504 0 c-383 0
-509 -3 -528 -13z"/>
<path d="M4670 1127 c-42 -21 -50 -51 -50 -195 0 -134 6 -164 39 -189 12 -9
143 -12 534 -13 l518 0 24 25 c24 23 25 28 25 175 l0 152 -29 29 -29 29 -504
0 c-383 0 -509 -3 -528 -13z"/>
<path d="M3320 1117 c-42 -21 -50 -51 -50 -195 0 -134 6 -164 39 -189 12 -9
143 -12 534 -13 l518 0 24 25 c24 23 25 28 25 175 l0 152 -29 29 -29 29 -504
0 c-383 0 -509 -3 -528 -13z"/>
<path d="M610 1077 c-42 -21 -50 -51 -50 -199 0 -132 1 -137 26 -167 l26 -31
519 0 520 0 24 25 c24 23 25 28 25 175 l0 152 -29 29 -29 29 -504 0 c-383 0
-509 -3 -528 -13z"/>
<path d="M2000 1077 c-42 -21 -50 -51 -50 -195 0 -134 6 -164 39 -189 12 -9
143 -12 534 -13 l518 0 24 25 c24 23 25 28 25 175 l0 152 -29 29 -29 29 -504
0 c-383 0 -509 -3 -528 -13z"/>
<path d="M5360 577 c-42 -21 -50 -51 -50 -195 0 -134 6 -164 39 -189 12 -9
143 -12 534 -13 l518 0 24 25 c24 23 25 28 25 175 l0 152 -29 29 -29 29 -504
0 c-383 0 -509 -3 -528 -13z"/>
<path d="M2670 557 c-42 -21 -50 -51 -50 -195 0 -134 6 -164 39 -189 12 -9
143 -12 534 -13 l518 0 24 25 c24 23 25 28 25 175 l0 152 -29 29 -29 29 -504
0 c-383 0 -509 -3 -528 -13z"/>
<path d="M4020 557 c-42 -21 -50 -51 -50 -195 0 -134 6 -164 39 -189 12 -9
143 -12 534 -13 l518 0 24 25 c24 23 25 28 25 175 l0 152 -29 29 -29 29 -504
0 c-383 0 -509 -3 -528 -13z"/>
<path d="M0 345 l0 -205 475 0 476 0 24 25 c24 23 25 28 25 175 l0 152 -29 29
-29 29 -471 0 -471 0 0 -205z"/>
<path d="M1280 537 c-42 -21 -50 -51 -50 -195 0 -134 6 -164 39 -189 12 -9
143 -12 534 -13 l518 0 24 25 c24 23 25 28 25 175 l0 152 -29 29 -29 29 -504
0 c-383 0 -509 -3 -528 -13z"/>
</g>
</svg>
