<?xml version="1.0" standalone="no"?>
<!DOCTYPE svg PUBLIC "-//W3C//DTD SVG 20010904//EN"
 "http://www.w3.org/TR/2001/REC-SVG-20010904/DTD/svg10.dtd">
<svg version="1.0" xmlns="http://www.w3.org/2000/svg"
 width="424.000000pt" height="424.000000pt" viewBox="0 0 424.000000 424.000000"
 preserveAspectRatio="xMidYMid meet">
<metadata>
Created by potrace 1.11, written by Peter Selinger 2001-2013
</metadata>
<g transform="translate(0.000000,424.000000) scale(0.100000,-0.100000)"
fill="#000000" stroke="none">
<path d="M2037 4204 c-3 -3 -34 -8 -69 -11 -35 -2 -77 -8 -95 -13 -20 -5 -35
-4 -42 3 -6 6 -11 7 -11 2 0 -6 -15 -11 -33 -13 -42 -3 -60 -6 -72 -13 -5 -3
-26 -6 -45 -8 -19 -2 -43 -7 -52 -12 -9 -5 -26 -9 -37 -9 -12 0 -29 -4 -39 -9
-9 -5 -37 -15 -62 -22 -25 -7 -49 -16 -55 -19 -5 -4 -22 -10 -36 -13 -14 -4
-47 -16 -75 -29 -27 -12 -51 -23 -54 -23 -14 -4 -67 -30 -80 -41 -8 -7 -22
-14 -30 -16 -8 -2 -34 -16 -57 -31 -24 -15 -43 -25 -43 -21 0 4 -11 -3 -25
-16 -14 -13 -25 -20 -25 -16 0 4 -10 -2 -22 -14 -12 -11 -28 -20 -37 -20 -8 0
-11 -3 -8 -6 4 -4 -13 -19 -36 -35 -61 -40 -197 -158 -197 -170 0 -6 -4 -7
-10 -4 -5 3 -10 -2 -10 -11 0 -10 -3 -14 -6 -11 -4 4 -19 -9 -34 -28 -15 -19
-30 -32 -34 -28 -3 3 -6 -1 -6 -11 0 -9 -4 -15 -8 -12 -5 3 -20 -14 -35 -37
-15 -22 -27 -37 -27 -33 0 4 -20 -19 -46 -53 -25 -33 -44 -61 -43 -63 2 -2
-10 -16 -24 -32 -15 -16 -33 -40 -40 -52 -7 -13 -30 -53 -52 -91 -52 -90 -106
-203 -97 -203 4 0 -1 -7 -11 -14 -10 -8 -18 -18 -18 -23 0 -14 -11 -58 -19
-68 -3 -5 -12 -29 -19 -52 -6 -24 -17 -43 -23 -43 -7 0 -7 -4 1 -13 6 -8 7
-17 1 -23 -9 -9 -13 -23 -32 -116 -7 -32 -15 -58 -18 -58 -3 0 -5 -15 -4 -32
0 -18 -6 -45 -13 -60 -8 -16 -9 -29 -3 -33 6 -4 5 -16 -1 -33 -13 -33 -24
-402 -12 -402 4 0 8 -24 8 -52 1 -69 7 -140 14 -153 6 -11 9 -23 16 -75 11
-72 17 -100 24 -100 3 0 7 -12 8 -26 0 -15 7 -30 15 -35 10 -7 10 -9 0 -9 -8
0 -9 -5 -3 -18 12 -22 25 -54 26 -67 0 -5 6 -20 13 -33 7 -12 10 -22 7 -22 -3
0 5 -19 17 -42 12 -24 21 -47 20 -52 -2 -4 1 -13 7 -20 5 -6 34 -60 65 -121
31 -60 64 -117 72 -126 7 -8 11 -19 7 -22 -3 -4 -1 -7 5 -7 7 0 12 -6 12 -14
0 -8 7 -17 16 -20 8 -3 12 -10 9 -16 -3 -5 -2 -10 3 -10 8 0 92 -105 92 -115
0 -11 36 -45 47 -45 7 0 13 -5 13 -11 0 -6 19 -30 42 -53 24 -24 67 -68 96
-99 29 -31 55 -56 58 -56 2 0 24 -17 48 -37 78 -65 220 -163 273 -188 28 -14
54 -30 58 -36 3 -5 10 -8 15 -5 4 3 13 -2 20 -10 7 -8 16 -15 21 -15 4 0 36
-13 71 -29 73 -33 173 -69 188 -68 3 0 16 -6 30 -13 14 -8 30 -15 37 -16 6 -1
27 -7 45 -12 18 -6 49 -13 68 -16 53 -9 111 -24 117 -30 4 -3 12 -1 20 5 8 7
13 8 13 1 0 -12 49 -22 56 -11 3 5 16 1 30 -8 19 -12 30 -13 48 -5 14 6 28 7
37 1 18 -11 290 -11 308 0 8 6 24 6 38 0 12 -5 23 -5 23 -1 0 4 19 8 43 10 23
1 87 11 142 22 55 11 111 22 124 25 14 2 27 8 30 12 3 5 15 9 26 10 32 4 49 8
60 14 6 4 35 14 65 24 30 10 79 29 107 42 29 13 54 23 55 22 2 -2 22 10 46 24
23 15 42 24 42 21 0 -4 9 1 20 11 11 10 20 14 20 10 0 -4 8 -1 18 7 9 9 39 27
65 42 26 14 53 31 60 36 7 6 55 42 107 81 52 39 100 76 105 82 6 7 47 47 91
89 45 43 79 80 76 83 -3 3 -1 5 5 5 14 0 123 133 123 150 0 7 3 10 7 7 3 -4
11 1 17 12 6 10 32 49 59 87 26 38 47 74 47 81 0 7 4 13 8 13 5 0 24 33 43 73
19 39 36 74 39 77 12 11 30 62 25 70 -3 4 2 11 11 14 8 3 12 10 9 16 -3 5 -1
10 4 10 6 0 10 3 9 8 -1 4 4 23 11 42 8 19 14 42 15 50 1 8 5 21 9 27 8 12 36
100 42 132 2 9 6 27 9 41 3 14 8 36 11 50 2 14 9 47 15 74 5 26 7 52 4 57 -3
5 -2 9 3 9 4 0 8 10 9 23 5 111 9 147 16 147 5 0 4 9 -2 19 -6 12 -6 22 -1 25
5 3 5 21 1 41 -4 19 -4 35 1 35 5 0 5 10 0 23 -5 13 -5 30 -1 37 5 8 6 18 3
24 -6 9 -8 25 -17 146 -7 98 -74 400 -89 400 -4 0 -5 5 -2 10 3 6 1 10 -6 10
-7 0 -10 3 -6 6 11 11 -53 168 -112 274 -5 8 -18 35 -30 60 -39 81 -93 167
-116 182 -5 4 -7 8 -2 8 6 0 -23 37 -60 75 -7 7 -10 15 -7 18 3 2 -6 14 -20
25 -15 11 -26 24 -26 29 0 31 -410 393 -446 393 -5 0 -16 9 -24 20 -8 11 -19
20 -25 20 -5 0 -36 16 -67 35 -32 19 -58 32 -58 28 0 -3 -6 0 -13 6 -8 6 -17
8 -20 4 -4 -3 -7 -2 -7 4 0 13 -133 74 -215 99 -33 10 -62 21 -65 25 -3 3 -16
9 -30 12 -14 3 -62 14 -108 25 -45 11 -85 20 -87 21 -3 1 -6 1 -7 2 -31 9
-126 22 -188 25 -36 1 -78 6 -95 9 -28 6 -83 7 -145 2 -14 -2 -30 1 -36 5 -6
4 -13 5 -17 2z"/>
</g>
</svg>
